<?xml version="1.0" encoding="UTF-8" standalone="no"?>
<svg
   id="Calque_2"
   data-name="Calque 2"
   viewBox="0 0 538.01 643.09"
   version="1.1"
   sodipodi:docname="Logo PSaclay Clean.svg"
   inkscape:version="1.3.2 (091e20e, 2023-11-25, custom)"
   inkscape:export-filename="Logo PSaclay Clean.png"
   inkscape:export-xdpi="500"
   inkscape:export-ydpi="500"
   xmlns:inkscape="http://www.inkscape.org/namespaces/inkscape"
   xmlns:sodipodi="http://sodipodi.sourceforge.net/DTD/sodipodi-0.dtd"
   xmlns="http://www.w3.org/2000/svg"
   xmlns:svg="http://www.w3.org/2000/svg">
  <sodipodi:namedview
     id="namedview26"
     pagecolor="#505050"
     bordercolor="#eeeeee"
     borderopacity="1"
     inkscape:showpageshadow="0"
     inkscape:pageopacity="0"
     inkscape:pagecheckerboard="0"
     inkscape:deskcolor="#505050"
     inkscape:zoom="7.1514443"
     inkscape:cx="226.248"
     inkscape:cy="639.10167"
     inkscape:window-width="1920"
     inkscape:window-height="1009"
     inkscape:window-x="-8"
     inkscape:window-y="-8"
     inkscape:window-maximized="1"
     inkscape:current-layer="Calque_2" />
  <defs
     id="defs1">
    <inkscape:path-effect
       effect="powerclip"
       id="path-effect28"
       is_visible="true"
       lpeversion="1"
       inverse="true"
       flatten="false"
       hide_clip="false"
       message="Utilise la règle de remplissage « fill-rule: evenodd » de la boîte de dialogue &lt;b&gt;Fond et contour&lt;/b&gt; en l'absence de résultat de mise à plat après une conversion en chemin." />
    <style
       id="style1">.cls-1{fill:#9f9aae;}.cls-2{fill:#9f9bae;}.cls-3{fill:#fefdfd;}.cls-4{font-size:18.75px;font-family:EurostileT-Medi, EurostileTMed;letter-spacing:0.06em;}.cls-11,.cls-4{fill:#124c79;}.cls-5{letter-spacing:0.12em;}.cls-6{letter-spacing:0.1em;}.cls-7{letter-spacing:0.09em;}.cls-8{letter-spacing:0.14em;}.cls-9{letter-spacing:0.02em;}.cls-10{letter-spacing:0.11em;}.cls-12{fill:#004876;}</style>
    <clipPath
       clipPathUnits="userSpaceOnUse"
       id="clipPath28">
      <path
         class="cls-3"
         d="m 155.39,159.8 c 3.69,-0.41 7.09,-1.83 10.63,-2.68 3.23,-0.78 6.23,0.6 9.67,1.79 -8.75,1.7 -12.11,3.02 -20.3,0.89 z"
         id="path28"
         style="display:none" />
      <path
         id="lpe_path-effect28"
         class="powerclip"
         d="M 132.93,80 H 216 v 107.07447 h -83.07 z m 22.46,79.8 c 8.19,2.13 11.55,0.81 20.3,-0.89 -3.44,-1.19 -6.44,-2.57 -9.67,-1.79 -3.54,0.85 -6.94,2.27 -10.63,2.68 z" />
    </clipPath>
  </defs>
  <path
     class="cls-1"
     d="M188.08,555.31v2.52c0,13.93-.06,27.85,0,41.77,0,1.78-.42,2.37-2.26,2.3-14.43-.5-27.28-4.86-37.51-15.45-5.72-5.93-9.24-13.12-11.48-21C134.52,557.3,134,549,134,540.55q.11-34.68,0-69.35c0-1.88.57-2.27,2.33-2.27q27.38.09,54.76,0c1.66,0,2.5.35,3.13,2.06a84.77,84.77,0,0,0,20.67,31.63,87.35,87.35,0,0,0,36,21.28,86.12,86.12,0,0,0,24.18,3.73,87.58,87.58,0,0,0,65.43-28.06,85.72,85.72,0,0,0,22.15-44.75,87.3,87.3,0,0,0-31.12-83,85.9,85.9,0,0,0-27.52-15.22,87.86,87.86,0,0,0-25.65-4.37,87.58,87.58,0,0,0-84.5,57.49,1.91,1.91,0,0,1-2.15,1.44q-28-.06-55.95,0c-1.63,0-1.84-.54-1.52-2A146.19,146.19,0,0,1,220.1,306a142.69,142.69,0,0,1,37.24-10,149.77,149.77,0,0,1,28.07-1,141.56,141.56,0,0,1,44.83,10.1,145.1,145.1,0,0,1,91,142.39A145.24,145.24,0,0,1,318.49,578.76a144.28,144.28,0,0,1-49.87,6.07,141.78,141.78,0,0,1-60.48-16.78A161,161,0,0,1,190,556.66C189.51,556.28,189,555.93,188.08,555.31Z"
     transform="translate(-28.27 -61.15)"
     id="path1" />
  <path
     class="cls-1"
     d="M131.16,364.1c1.77-3.44,3.29-6.44,4.87-9.41a130.34,130.34,0,0,1,16.82-24.37,139.89,139.89,0,0,1,22.66-20.91,127.48,127.48,0,0,1,34-18.13,112.43,112.43,0,0,1,28.55-5.94,106.86,106.86,0,0,1,27,1.18,17.18,17.18,0,0,1,4.12.84c-1.21,0-1.92,0-2.64,0A134.27,134.27,0,0,0,225.47,293a136.46,136.46,0,0,0-34.19,15.68A140,140,0,0,0,161,334.21c-6.89,7.77-12.44,16.51-17.54,25.53A184.13,184.13,0,0,0,128,395.38a162.78,162.78,0,0,0-7,32.36c-.16,1.56-.47,3.11-.62,4.67-.32,3.38-2.46,5.09-5.48,5.89a44.17,44.17,0,0,1-17.37.66c-7.06-.94-14.12-1.95-21.24-2.45-1.67-.12-3,1-4.25,1.84-6.45,4.22-7.59,12.48-4.91,18.72.25.59.79,1.06.58,2.11a16.44,16.44,0,0,1-3.09-5c-2.94-6.6-2.39-13,1.24-19.2,2.36-4,7.32-5.95,12.48-5.18,8.3,1.24,16.63,2.22,25.05,1.81a26.89,26.89,0,0,0,4.48-.55c4.09-.9,5.87-4,6.7-7.68a44.54,44.54,0,0,0,.44-6.51c-1.47,1.29-2.54,2.28-3.66,3.21-4.88,4-10.57,4.07-16.44,3.43-9.13-1-18.18-1.09-27,2.09-7,2.52-12.42,8.11-12.31,16.87,0,.18-.07.36-.18,1a18.07,18.07,0,0,1-1.22-11.72c1.39-5.52,5.15-9.07,9.91-11.6A42.65,42.65,0,0,1,84.9,415c4.78.06,9.59.53,14.34-.33a25.25,25.25,0,0,0,11-4.38c4.29-3.25,4.61-7.8,3.66-12.63a42.86,42.86,0,0,0-2.33-7.28c-2.42-6.18-3.24-12.65-3.58-19.21-.66-12.58.88-25,3.1-37.3,1.86-10.34,4.16-20.53,8-30.33a122.8,122.8,0,0,1,15.52-27.94c1.36-1.84,2.8-3.63,4.17-5.45,2.77-3.68,2.86-10.22.21-14.73-2.36-4-7-6.09-11.92-5.58a18,18,0,0,0-16.41,17.36c-.4,7.83-1.86,15.58-2.87,23.37-.52,3.94-.94,7.9-1.45,12.25-1-2.61-.68-5-.93-7.3A143.72,143.72,0,0,0,93.26,251c-1.51-3.3-1.65-6.88-2-10.36a91.93,91.93,0,0,1,3-35.42,8.18,8.18,0,0,1,.9-2.19,55.29,55.29,0,0,0,.27,6.45,25.4,25.4,0,0,0,18.22,22.13c12.18,3.55,23.49,1.74,33.79-5.64a32.58,32.58,0,0,0,11.33-15.47c.12-.32,0-.82.76-1a12.6,12.6,0,0,1-.51,9.08,71.75,71.75,0,0,0-3.24,9.67c-.11.45-.62,1-.05,1.44.42.31.86-.12,1.28-.27a58,58,0,0,0,16.39-9.12,67,67,0,0,1,16.34-10.06c.88-.37,1.4-.75.94-1.73-2.46-5.22-.47-9.47,3.1-13.19,3.32-3.45,7.83-5.63,10.6-9.74a25.33,25.33,0,0,1-5.9,8.91c-3.34,3.32-3.39,8.22-.51,12,1.9,2.5,4.47,3,7.25,3.18,9,.5,17.94.84,26.92-.19,4-.46,6.3-2.88,8.25-6,.2-.31.1-.83.65-.89.12,4.95-2.53,8.4-7.25,9.15-6.74,1.08-13.37,2.53-19.56,5.56-6.84,3.37-10.39,9.15-12,16.35-1.71,7.74,1.81,13.75,6.47,19.37,12,14.49,28,22,45.8,26.51a5.16,5.16,0,0,1,1.6.64c-19.18-1-36-8.11-51.1-20.66-.84,14.76-7,26.47-18.36,35.4a58.07,58.07,0,0,0,3.94-10,43.11,43.11,0,0,0-2.85-31c-.62-1.29-1.13-1.32-2.36-.65A107.12,107.12,0,0,0,160.69,272,104.38,104.38,0,0,0,135.9,311.2a106,106,0,0,0-5.81,28.17A111.49,111.49,0,0,0,131,362.9C131,363.13,131,363.35,131.16,364.1Z"
     transform="translate(-28.27 -61.15)"
     id="path2" />
  <path
     class="cls-1"
     d="M81.31,193.09c14.91,1.28,29.28-5.25,35.44-19.75.28-.65.28-1.87,1.32-1.65a7.47,7.47,0,0,1,3.61,1.45c.44.39.1,1-.11,1.46-4.73,11.1-12.77,18.52-24.43,21.87-9.26,2.66-18.52,2.27-27.76-.11-.57-.15-1.15-.25-1.72-.39s-1-.27-1.81-.5c3.06-1.46,5.84-2.73,8.59-4.09a19.76,19.76,0,0,0,10.84-13A64.28,64.28,0,0,1,91.42,164c.63-1.11.53-1.62-.61-2.27-11.37-6.5-18-16.37-20.3-29.14a30.33,30.33,0,0,1,7.15-26.17C84,98.9,92.41,94.62,101.11,90.67s17.83-6,27.1-7.78a62.32,62.32,0,0,0,10.65-2.64c8.62-3.3,13.67-9.77,16.52-18.26.1-.31.08-.66.41-.84,1.32,2.31,1.32,8,.13,11.72-1.95,6-6.12,10.26-10.9,14.07A66.83,66.83,0,0,1,123,98.65c-5.56,1.73-9.11,6-12.07,10.76-2.78,4.47-4.65,9.22-4.43,14.62.27,6.92,4,11.53,9.74,14.87a25.59,25.59,0,0,0,11.43,3.29c1.71.11,1.71.81,1.35,2.07-2.87,9.84-9,16.55-18.82,19.76a23.78,23.78,0,0,1-12.79.86c-1.08-.24-1.25.61-1.54,1.16a63.47,63.47,0,0,0-5.65,13.16A24.88,24.88,0,0,1,82,192.34,9.49,9.49,0,0,0,81.31,193.09Z"
     transform="translate(-28.27 -61.15)"
     id="path3" />
  <path
     class="cls-1"
     d="M90.3,276.46c0,3.13,0,6.27,0,9.41a348.68,348.68,0,0,0,3.12,42.71c1.56,11.47,3.06,22.95,5.6,34.26,1.15,5.14,3.39,9.9,5,14.89a92.66,92.66,0,0,1,4.67,25.4c-1.33-1.92-2.36-3.46-3.44-5a45.29,45.29,0,0,0-9.31-9.54c-5.47-4.23-9-3.27-12.37.67-1.75,2-3.5,4.07-5.23,6.12-2.87,3.44-6.47,6.1-9.76,9.09-7.27,6.62-14.72,13-21.67,20a28,28,0,0,0-8.5,21.84,13.5,13.5,0,0,0,1.65,6,115.77,115.77,0,0,1,10.35,26.43c2.13,8,10.76,14.44,19,14.74a150.68,150.68,0,0,0,30.15-2c5.55-.92,5.84-1.38,4.17-6.59a33.77,33.77,0,0,0-5-10.58c-2.63-3.42-6.27-3.66-9.78-1.72A10.57,10.57,0,0,0,83.6,485c.15.62.3,1.24.48,2a9.22,9.22,0,0,1-4.22-8.9c.12-1,.82-2.15-.64-2.69s-3.18-1.8-4.93-.25a12.87,12.87,0,0,0-3.61,5.52,13.85,13.85,0,0,1-1,2.31,30,30,0,0,1,4.63-14.06c.45-.72.76-.54,1.29.08,2.64,3.05,3.51,3.17,7,1.36,3.95-2,7.82-4.33,12.54-4a12.36,12.36,0,0,1,10.72,7.15c3,5.94,4.76,12.32,6.33,18.76.33,1.38.74,2.68-1.51,3.13-13.52,2.71-27.07,4.74-40.94,4.53-8.87-.12-15.53-3.79-20.8-10.66a42.06,42.06,0,0,1-5.92-11c-2.7-7.2-6.46-13.88-10.29-20.52-6.64-11.54-5.61-22.89.81-34.13,3.74-6.55,9.43-11.38,14.66-16.6,8.92-8.9,17.42-18.14,24.59-28.54a51.61,51.61,0,0,0,8.55-22.54c1.3-9.14,2.32-18.31,3.35-27.47,1-8.59,1.67-17.21,2.5-25.82s1.68-17.45,2.52-26.17Z"
     transform="translate(-28.27 -61.15)"
     id="path4" />
  <path
     class="cls-1"
     d="M424.48,489.13c.57-3.55,1-7.11,1.71-10.63a167.72,167.72,0,0,0,2.15-18.14c.54-6.73.87-13.48.79-20.24a206,206,0,0,0-6.36-49.78c-3.15-12.09-8.74-22.95-15.62-33.26-3.35-5-6.49-10.22-9.57-15.48,2.77,2.15,5.51,4.33,8.31,6.43,6.47,4.86,13.86,8.17,20.77,12.29,11.76,7,23.84,13.54,34.35,22.41A65.81,65.81,0,0,1,481.73,413a119.11,119.11,0,0,1,4.62,22.46c1.44,11.7,2.59,23.43,4,35.14a21,21,0,0,0,20.08,18.67c7.61.2,13-3.88,16.55-10.41,2.8-5.18,2.76-10.79,2.14-16.48-1.24-11.46-.64-22.65,5.32-32.94a9,9,0,0,1,2.33-3,33.58,33.58,0,0,0,1.65,12.44c4.35-14.92,13.42-25,27.86-30.79-1.57,2.93-3,5.37-4.22,7.95a38.77,38.77,0,0,0-3.58,19.31c.79,10.2-2.79,18.74-9.83,26a31.14,31.14,0,0,1-7.21,5.06,13.18,13.18,0,0,0-6.34,7.93,27.88,27.88,0,0,1-8.05,13.25c-5.66,5.13-12.41,7-20,6.12-10.92-1.29-20.7-11.05-22-23.6-1.2-12-2.12-24-4.26-35.87-1.7-9.43-3.72-18.77-8.2-27.36S461.71,391.56,452.47,388c-.55-.22-1.23-.83-1.79-.22-.42.44-.06,1.11,0,1.69.48,4.5,1,9,1.35,13.49.13,1.67.66,3.34.2,5.48-.77-3.85-1.43-7.3-2.14-10.73-2.42-11.72-8.31-21.07-18.62-27.48a79,79,0,0,0-10.14-5.53c-.39-.17-.81-.66-1.25-.25s0,.86.19,1.25a188.81,188.81,0,0,1,8.84,29.71,197.83,197.83,0,0,1,3.36,22.72,185.17,185.17,0,0,1-2.13,48.37,156.47,156.47,0,0,1-4.67,20.06c-.28.9-.61,1.79-.91,2.68Z"
     transform="translate(-28.27 -61.15)"
     id="path5" />
  <path
     class="cls-2"
     d="M416.65,512.56c.39,3.1.74,5.67,1,8.25,1.2,11.48,4.56,22.42,8.19,33.3a104.82,104.82,0,0,1,4.53,22.68,59.2,59.2,0,0,1,.21,10.82c-.67-2.93-1.36-5.86-2-8.79a114.77,114.77,0,0,0-9.95-27.43c-2.77-5.35-5-10.95-7.43-16.48-.54-1.26-.88-1.21-1.68-.33q-2.64,2.92-5.35,5.77a1.54,1.54,0,0,0-.19,2.1,209.65,209.65,0,0,1,15.9,36.94c4.37,13.89,5.6,28.12,1.75,42.42-1.12,4.17-3.08,8.09-3.83,12.36a34.66,34.66,0,0,0,2.59,20.16,11.28,11.28,0,0,1,1,3.95,45.43,45.43,0,0,1-3.51,21.14,1.92,1.92,0,0,0,.6,2.66c2.56,2.15,5,4.38,7.51,6.65a1.46,1.46,0,0,0,2.22.1A144,144,0,0,1,448,675.67c.76-.42.8-.87.45-1.58-3.71-7.51-2.88-14.84.94-22a1.59,1.59,0,0,0-.16-2.1,42.45,42.45,0,0,1-8.47-15.79c-2.48-8.47-2.44-16.63,2.74-24.28a36.35,36.35,0,0,0,6.33-20.53c.05-5.43-2-10.15-4.87-14.5a25.58,25.58,0,0,1-4.77-16.07c.23-4,.41-8,.41-12a93.64,93.64,0,0,0-3.91-26.34c-.71-2.45-1.52-4.87-2.4-7.27a3.42,3.42,0,0,1,.29-3.15c7.74-13.68,12.26-28.48,14.64-43.93a285.19,285.19,0,0,0,3.41-36c.1-4,.08-7.94.36-12.37a18.08,18.08,0,0,1,1,6.19,212.91,212.91,0,0,1,0,28.91c-.71,10.05-2.09,20-3.34,30-1,7.75-3.11,15.25-4.24,23a110.31,110.31,0,0,0-1,18.43c.24,10.11-.31,20.21-.37,30.31A43.36,43.36,0,0,0,453.86,581a11.06,11.06,0,0,1,2,7.33c-.25,8-1.86,15.79-6.43,22.57-7.16,10.66-4.69,21,.61,31.37a35.81,35.81,0,0,0,5.17,7.39,1.56,1.56,0,0,1,.17,2.21c-5,8.19-4.9,16.51-.34,24.81.63,1.15.44,1.53-.61,2.05a147.41,147.41,0,0,0-26.34,16.66c-1.22,1-2,.94-3.07-.21a151.1,151.1,0,0,0-14-12.63c-1.08-.87-1.06-1.46-.44-2.57a36.46,36.46,0,0,0,4.82-18.82,23,23,0,0,0-1.73-8c-3.79-9.31-2.89-18.42.39-27.61a65,65,0,0,0,3.66-25.72,89.83,89.83,0,0,0-7.05-29.68c-4.08-9.77-9-19.05-15.84-27.25-.84-1-.48-1.53.22-2.26A164,164,0,0,0,410,522.37C412.19,519.3,414.24,516.13,416.65,512.56Z"
     transform="translate(-28.27 -61.15)"
     id="path6" />
  <path
     class="cls-2"
     d="M122.47,652.45A29.61,29.61,0,0,1,129.85,642c3.09-2.92,6-6,9.53-8.48,2.6-1.79,3.32-4.76,3.38-7.82.07-4.07-.64-8.11-.38-12.19s1.88-7.51,4.76-11.08c-.33,2.64-.55,4.73-.86,6.81a43.69,43.69,0,0,0,.61,13.7c1.1,6.59-1,11.54-6.24,15.42a26.88,26.88,0,0,0-4.89,4.82,2.55,2.55,0,0,0-.31,3.18,46.43,46.43,0,0,1,5,21.4,5.43,5.43,0,0,1-1.49,3.88,43.67,43.67,0,0,1-25.42,14.18c-1.21.21-1.79,0-2.28-1.09-1-2.15-2.15-4.21-3.1-6.36-.56-1.27-1.1-1.15-1.93-.34-1.54,1.53-3.12,3-4.65,4.54a1.75,1.75,0,0,1-2.56.2,31.83,31.83,0,0,1-9.9-10.49,4.06,4.06,0,0,1-.58-3c2.06-12.07,7.7-22,17.53-29.47a2.87,2.87,0,0,0,1.26-2.46,30.88,30.88,0,0,0-4.26-16.72,2.24,2.24,0,0,1,.29-3,186.46,186.46,0,0,0,21.75-35c1.52-3.17,2.92-6.4,4.38-9.61.8.23.81.89,1,1.4a50.49,50.49,0,0,0,14.11,20c1,.83.6,1.37,0,2.06A60.76,60.76,0,0,0,136,608.77a66.83,66.83,0,0,0-4.46,9.59A23.75,23.75,0,0,1,133.76,605c.57-1.19,1.15-2.36,1.75-3.53,1.41-2.79.85-5.33-1-7.65-1-1.22-2.1-2.34-3.1-3.55s-1.71-1-2.43.32c-2.45,4.49-5.22,8.78-8.1,13a160.57,160.57,0,0,1-10.64,14.13,3,3,0,0,0-.59,3.64,35.46,35.46,0,0,1,2.81,18.81,3.19,3.19,0,0,1-1.72,2.41A35.11,35.11,0,0,0,95.32,665.4a8.24,8.24,0,0,0,4.37,8.69,2.13,2.13,0,0,0,2.51-.37c2.17-1.8,4.44-3.47,6.63-5.24,1-.83,1.55-.82,2,.58.9,2.74,2,5.4,3,8.12.47,1.35,1.12,1.82,2.63,1.4,6.25-1.75,11.54-5.1,16.53-9.15,2.35-1.91,2-4.22,1.84-6.59a40.19,40.19,0,0,0-3.64-13.18c-.66-1.5-1.42-2-3-1.12A31.59,31.59,0,0,0,122.47,652.45Z"
     transform="translate(-28.27 -61.15)"
     id="path7" />
  <path
     class="cls-1"
     d="m 211,167.2 a 1.93,1.93 0 0 0 -0.59,0 c -5.58,2.19 -11.43,2.35 -17.26,2 -8,-0.52 -14.24,2.64 -19.64,8.13 -3.76,3.82 -8.46,5 -13.69,4.7 2.31,-0.73 4.74,-1 6.93,-2.16 a 16.86,16.86 0 0 0 5.86,-4.56 c 5.51,-7.35 13.2,-8.91 21.71,-8.37 2.67,0.17 5.34,0.41 8.39,0.64 -1,-1 -2.1,-0.76 -3,-1 -5.62,-1.54 -11,-3.85 -16.77,-4.95 a 16.44,16.44 0 0 0 -7.58,0.07 43.85,43.85 0 0 1 -30.31,-2.5 15.35,15.35 0 0 1 -1.39,-0.73 8.73,8.73 0 0 1 -0.79,-0.57 c 1.51,0 2.73,-0.08 3.93,0 4.82,0.36 9.55,0.3 14,-2 2.78,-1.44 5.81,-1.45 8.87,-1.42 -3.94,-2.26 -8.69,-0.85 -12.72,-2.76 0.22,-0.46 0.62,-0.2 0.93,-0.21 a 4.56,4.56 0 0 1 1,0.15 22.17,22.17 0 0 0 5.07,0.53 c 5.19,-0.38 9.11,1.45 12.63,3.84 0.11,-0.94 -0.49,-1.48 -0.94,-2.06 a 29.69,29.69 0 0 0 -16.71,-10.76 c -6.82,-1.8 -13.83,-2.08 -21,-2.54 1.33,-1.07 2.87,-0.81 4.18,-0.93 a 49.24,49.24 0 0 1 29.48,6.42 18.4,18.4 0 0 1 3,2.26 1.63,1.63 0 0 0 2.4,0 c 6.27,-4.6 10.48,-13.31 8.71,-21.37 -1.53,-7 -3.62,-13.82 -4.39,-20.93 -0.63,-5.69 -0.38,-11.3 3,-16.26 A 25.9,25.9 0 0 1 189.05,85 c 0.32,1.75 -0.63,2.88 -0.9,4.14 -1.79,8.35 0.65,15.59 5.9,22 5.55,6.77 9.82,14.15 10.81,23 1.23,11 -2.54,20.08 -11.51,26.81 l -1.31,1 c 4.81,2.43 9.53,4.34 14.8,4.6 1.39,0.07 2.85,-0.19 4.08,0.76 z"
     transform="translate(-28.27 -61.15)"
     id="path8"
     clip-path="url(#clipPath28)"
     inkscape:path-effect="#path-effect28"
     inkscape:original-d="M211,167.2a1.93,1.93,0,0,0-.59,0c-5.58,2.19-11.43,2.35-17.26,2-8-.52-14.24,2.64-19.64,8.13-3.76,3.82-8.46,5-13.69,4.7,2.31-.73,4.74-1,6.93-2.16a16.86,16.86,0,0,0,5.86-4.56c5.51-7.35,13.2-8.91,21.71-8.37,2.67.17,5.34.41,8.39.64-1-1-2.1-.76-3-1-5.62-1.54-11-3.85-16.77-4.95a16.44,16.44,0,0,0-7.58.07,43.85,43.85,0,0,1-30.31-2.5,15.35,15.35,0,0,1-1.39-.73,8.73,8.73,0,0,1-.79-.57c1.51,0,2.73-.08,3.93,0,4.82.36,9.55.3,14-2,2.78-1.44,5.81-1.45,8.87-1.42-3.94-2.26-8.69-.85-12.72-2.76.22-.46.62-.2.93-.21a4.56,4.56,0,0,1,1,.15,22.17,22.17,0,0,0,5.07.53c5.19-.38,9.11,1.45,12.63,3.84.11-.94-.49-1.48-.94-2.06a29.69,29.69,0,0,0-16.71-10.76c-6.82-1.8-13.83-2.08-21-2.54,1.33-1.07,2.87-.81,4.18-.93a49.24,49.24,0,0,1,29.48,6.42,18.4,18.4,0,0,1,3,2.26,1.63,1.63,0,0,0,2.4,0c6.27-4.6,10.48-13.31,8.71-21.37-1.53-7-3.62-13.82-4.39-20.93-.63-5.69-.38-11.3,3-16.26A25.9,25.9,0,0,1,189.05,85c.32,1.75-.63,2.88-.9,4.14-1.79,8.35.65,15.59,5.9,22,5.55,6.77,9.82,14.15,10.81,23,1.23,11-2.54,20.08-11.51,26.81l-1.31,1c4.81,2.43,9.53,4.34,14.8,4.6,1.39.07,2.85-.19,4.08.76Z" />
  <path
     class="cls-1"
     d="M210.92,167.23a23.61,23.61,0,0,1,5.07-4.59,7.55,7.55,0,0,1,5.87-.75,31.61,31.61,0,0,1,7.14,2.7,5.74,5.74,0,0,0,4,.51,16.14,16.14,0,0,1,9.6,1.2,6.47,6.47,0,0,1,3.78,4.73c2.22,8.67,1.07,17-2.45,25.12-.57,1.32-1.18,1.53-2.54.92-7.07-3.17-14.5-3.35-22-2.1-3.75.63-6,3.42-7.84,6.74-.74-4.18,1.57-7.86,5.86-9.24,5.56-1.79,11.25-1.59,16.94-.69q3,.48,6,1.21a1.18,1.18,0,0,0,1.65-.84,28.7,28.7,0,0,0,1.84-16.23c-2.18,2.2-4.43,4.09-8.1,3.82,2.36-1.46,4.13-2.93,5.1-5.2,1.27-3,.09-4.9-3.17-5a8,8,0,0,0-5.09,1.1c-.95.67-1.49.1-2.05-.4a14.09,14.09,0,0,0-6.17-2.92c-2.68-.66-4.14.81-3.82,3.56a12.52,12.52,0,0,0,4.71,8.34,10.32,10.32,0,0,1-8.07-6.07c-.91-2-2-1.81-3.53-1.17-2.66,1.12-4.41,3.21-6.07,5.84A19.37,19.37,0,0,1,211,167.2Z"
     transform="translate(-28.27 -61.15)"
     id="path9" />
  <text
     id="PARIS-SUD"
     class="cls-4"
     transform="translate(179.69,638.4)">P<tspan
   class="cls-5"
   x="12.43"
   y="0"
   id="tspan10">ARIS-SACLAY</tspan></text>
  <path
     class="cls-11"
     d="M368.84,610.58a4.19,4.19,0,1,1-4.3,4.19A4.16,4.16,0,0,1,368.84,610.58Zm0,7.48a3.29,3.29,0,1,0-3.16-3.29A3.18,3.18,0,0,0,368.84,618.06Zm2.2-2.6a2,2,0,0,1-2,1.77,2.36,2.36,0,0,1-2.41-2.49,2.32,2.32,0,0,1,2.39-2.51,1.94,1.94,0,0,1,2,1.74h-.88a1.09,1.09,0,0,0-1.15-.83c-.85,0-1.32.66-1.32,1.58a1.46,1.46,0,0,0,1.34,1.62,1,1,0,0,0,1.13-.88Z"
     transform="translate(-28.27 -61.15)"
     id="path16" />
  <path
     class="cls-11"
     d="M356.74,635.57v-7h-8.6v7h-3.26V619h3.26v6.73h8.6V619H360v16.62Z"
     transform="translate(-28.27 -61.15)"
     id="path17" />
  <path
     class="cls-11"
     d="M325.8,635.69h0a5.71,5.71,0,0,1-4.09-1.45h0a5.43,5.43,0,0,1-1.51-4h0V624.3c0-2.29.87-3.85,2.35-4.61h0a12,12,0,0,1,5.41-.86h1.58c1.85,0,3.21.35,4.13,1.27h0a5.19,5.19,0,0,1,1.18,3.8h0v1.15h-3.26V624a2.71,2.71,0,0,0-.38-1.82h0c-.21-.24-.75-.45-1.94-.45h-1.09a14.1,14.1,0,0,0-3.28.26h0a1.6,1.6,0,0,0-1.21.88h0a3.5,3.5,0,0,0-.23,1.41h0v4.2a13.64,13.64,0,0,0,.2,3h0a1.49,1.49,0,0,0,.89,1.17h0a4.2,4.2,0,0,0,1.62.24h2.28a9.53,9.53,0,0,0,2.44-.2h0c.5-.17.63-.3.78-.62h0a2.83,2.83,0,0,0,.14-1.07h0V629h3.27v2.09a3.92,3.92,0,0,1-2,3.85h0a10.27,10.27,0,0,1-4.52.71H325.8"
     transform="translate(-28.27 -61.15)"
     id="path18" />
  <path
     class="cls-11"
     d="M298,635.57V619H310.2v2.87h-9v3.86h8.6v2.75h-8.6v4.27h9v2.87Z"
     transform="translate(-28.27 -61.15)"
     id="path19" />
  <path
     class="cls-11"
     d="M280.07,635.57V621.82h-5.5V619h14.26v2.87h-5.5v13.75Z"
     transform="translate(-28.27 -61.15)"
     id="path20" />
  <path
     class="cls-11"
     d="M257.2,635.57v-6.84L250.36,619h3.88l4.68,6.66,4.67-6.66h4l-7.07,9.79v6.83Z"
     transform="translate(-28.27 -61.15)"
     id="path21" />
  <path
     class="cls-11"
     d="M232.89,635.57V619h3.26V632.7h8.65v2.87Z"
     transform="translate(-28.27 -61.15)"
     id="path22" />
  <path
     class="cls-11"
     d="M216.45,618.83c2.17,0,3.73.33,4.8,1.33h0c1.07,1,1.39,2.5,1.39,4.47h0v5.44c0,1.87-.38,3.34-1.46,4.32h0c-1.08,1-2.64,1.3-4.74,1.3h-2.28c-2.1,0-3.66-.33-4.74-1.3h0c-1.08-1-1.46-2.45-1.46-4.32h0v-5.44c0-2,.33-3.46,1.39-4.47h0c1.07-1,2.63-1.3,4.81-1.33h2.28m-2.28,2.86c-1.4,0-2.11.19-2.4.5h0c-.32.28-.54,1-.53,2.44h0v5.44c0,1.46.27,2.06.61,2.32h0a4,4,0,0,0,2.32.43h2.28a3.94,3.94,0,0,0,2.32-.43h0c.34-.26.62-.86.62-2.32h0v-5.44c0-1.45-.22-2.16-.53-2.44h0c-.29-.31-1-.5-2.41-.5h-2.28"
     transform="translate(-28.27 -61.15)"
     id="path23" />
  <path
     class="cls-11"
     d="M185.42,635.57V619h9.32a4.38,4.38,0,0,1,3.8,1.6h0a6.24,6.24,0,0,1,.92,3.69h0a6.8,6.8,0,0,1-.6,3.17h0a4.34,4.34,0,0,1-4.21,2.21h-6v6Zm3.26-8.82h4.42a9,9,0,0,0,2.11-.14h0a1,1,0,0,0,.79-.68h0a4.14,4.14,0,0,0,.2-1.46h0c0-1.44-.19-2.11-.4-2.3h0c-.18-.21-.72-.37-1.9-.35h-5.22v4.93Z"
     transform="translate(-28.27 -61.15)"
     id="path24" />
  <path
     class="cls-12"
     d="M242.08,671.29h6.76l2.17,0c2.07,0,3.45-.29,4.1-.88s1-1.83,1-3.72-.35-3.2-1-3.71-2.41-.76-5.12-.76h-7.87Zm0-13.67h7.54c2.45,0,4-.26,4.68-.81s1-1.78,1-3.74c0-2.6-1.47-3.9-4.43-3.9h-8.8Zm-6.17,18.85V644h16q5.61,0,7.64,1.8t2,6.77c0,4-1.6,6.38-4.78,7.09v.12c3.71.57,5.57,3.16,5.57,7.74,0,3.32-.71,5.64-2.15,7s-3.92,2-7.47,2Z"
     transform="translate(-28.27 -61.15)"
     id="path25" />
  <path
     class="cls-12"
     d="M273.68,671.29h8.78c3,0,4.86-.69,5.73-2s1.29-4.35,1.29-9-.39-7.84-1.16-9.14-2.61-2-5.48-2h-9.16Zm-6.17,5.18V644h16q6.79,0,9.53,3c1.81,2,2.73,5.46,2.73,10.43q0,12.15-2.2,15.62t-9.88,3.46Z"
     transform="translate(-28.27 -61.15)"
     id="path26" />
  <polygon
     class="cls-12"
     points="278.18 588.02 278.18 596.4 293.42 596.4 293.42 600.95 278.18 600.95 278.18 610.14 294.39 610.14 294.39 615.33 272.02 615.33 272.02 582.84 294.25 582.84 294.25 588.02 278.18 588.02"
     id="polygon26" />
</svg>
